<svg id="Capa_1" enable-background="new 0 0 512 512" height="512" viewBox="0 0 512 512" width="512" xmlns="http://www.w3.org/2000/svg"><g><path d="m431.008 158.992c.025-.025-136.975-137.025-136.975-137.025-13.605-13.556-32.355-21.967-53.033-21.967h-182v512h394v-300c0-20.677-8.411-39.427-21.992-53.008zm-115.008-72.632 50.64 50.64h-50.64zm107 395.64h-334v-452h152c24.813 0 45 20.187 45 45v92h92c24.813 0 45 20.187 45 45z"/><path d="m194 377h184v30h-184z"/><path d="m194 317h184v30h-184z"/><path d="m194 257h184v30h-184z"/><path d="m134 257h30v30h-30z"/><path d="m134 317h30v30h-30z"/><path d="m134 377h30v30h-30z"/></g></svg>