<svg width="112" height="45" viewBox="0 0 112 45" fill="none" xmlns="http://www.w3.org/2000/svg">
<g filter="url(#filter0_b)">
<path d="M15.9099 24H13.7499L13.7499 6.864L23.3259 6.864V8.76L15.9099 8.76V14.832L22.8699 14.832V16.728H15.9099L15.9099 24ZM39.2272 17.952C39.2272 19.136 38.9872 20.208 38.5072 21.168C38.0272 22.112 37.2912 22.864 36.2992 23.424C35.3232 23.968 34.0752 24.24 32.5552 24.24C30.4272 24.24 28.8032 23.664 27.6832 22.512C26.5792 21.344 26.0272 19.808 26.0272 17.904L26.0272 6.864H28.1872L28.1872 17.976C28.1872 19.368 28.5552 20.448 29.2912 21.216C30.0432 21.984 31.1712 22.368 32.6752 22.368C34.2272 22.368 35.3472 21.96 36.0352 21.144C36.7392 20.312 37.0912 19.248 37.0912 17.952V6.864H39.2272V17.952ZM49.1739 24H47.0139V8.76L41.6619 8.76V6.864L54.5019 6.864V8.76H49.1739V24ZM70.1178 17.952C70.1178 19.136 69.8778 20.208 69.3978 21.168C68.9178 22.112 68.1818 22.864 67.1898 23.424C66.2138 23.968 64.9658 24.24 63.4458 24.24C61.3178 24.24 59.6938 23.664 58.5738 22.512C57.4698 21.344 56.9178 19.808 56.9178 17.904V6.864H59.0778V17.976C59.0778 19.368 59.4458 20.448 60.1818 21.216C60.9338 21.984 62.0618 22.368 63.5658 22.368C65.1178 22.368 66.2378 21.96 66.9258 21.144C67.6298 20.312 67.9818 19.248 67.9818 17.952V6.864L70.1178 6.864V17.952ZM79.3685 6.864C81.4965 6.864 83.0645 7.272 84.0725 8.088C85.0965 8.888 85.6085 10.104 85.6085 11.736C85.6085 12.648 85.4405 13.408 85.1045 14.016C84.7685 14.624 84.3365 15.112 83.8085 15.48C83.2965 15.832 82.7525 16.112 82.1765 16.32L86.8805 24H84.3605L80.2085 16.92H76.8005V24H74.6405V6.864L79.3685 6.864ZM79.2485 8.736H76.8005V15.096H79.3685C80.7605 15.096 81.7765 14.824 82.4165 14.28C83.0565 13.72 83.3765 12.904 83.3765 11.832C83.3765 10.712 83.0405 9.92 82.3685 9.456C81.6965 8.976 80.6565 8.736 79.2485 8.736ZM99.1462 24L89.5702 24V6.864L99.1462 6.864V8.76L91.7302 8.76V14.112L98.7142 14.112V15.984L91.7302 15.984V22.104H99.1462V24Z" fill="black"/>
<path d="M11.4219 27L100.586 27V28.2L11.4219 28.2V27Z" fill="black"/>
<path d="M6.10658 40.172C7.32258 40.172 7.93058 39.756 7.93058 38.924C7.93058 38.668 7.87458 38.452 7.76258 38.276C7.65858 38.092 7.51458 37.936 7.33058 37.808C7.14658 37.672 6.93458 37.556 6.69458 37.46C6.46258 37.364 6.21458 37.268 5.95058 37.172C5.64658 37.068 5.35858 36.952 5.08658 36.824C4.81458 36.688 4.57858 36.532 4.37858 36.356C4.17858 36.172 4.01858 35.956 3.89858 35.708C3.78658 35.46 3.73058 35.16 3.73058 34.808C3.73058 34.08 3.97858 33.512 4.47458 33.104C4.97058 32.696 5.65458 32.492 6.52658 32.492C7.03058 32.492 7.48658 32.548 7.89458 32.66C8.31058 32.764 8.61458 32.88 8.80658 33.008L8.43458 33.956C8.26658 33.852 8.01458 33.752 7.67858 33.656C7.35058 33.552 6.96658 33.5 6.52658 33.5C6.30258 33.5 6.09458 33.524 5.90258 33.572C5.71058 33.62 5.54258 33.692 5.39858 33.788C5.25458 33.884 5.13858 34.008 5.05058 34.16C4.97058 34.304 4.93058 34.476 4.93058 34.676C4.93058 34.9 4.97458 35.088 5.06258 35.24C5.15058 35.392 5.27458 35.528 5.43458 35.648C5.59458 35.76 5.77858 35.864 5.98658 35.96C6.20258 36.056 6.43858 36.152 6.69458 36.248C7.05458 36.392 7.38258 36.536 7.67858 36.68C7.98258 36.824 8.24258 36.996 8.45858 37.196C8.68258 37.396 8.85458 37.636 8.97458 37.916C9.09458 38.188 9.15458 38.52 9.15458 38.912C9.15458 39.64 8.88658 40.2 8.35058 40.592C7.82258 40.984 7.07458 41.18 6.10658 41.18C5.77858 41.18 5.47458 41.156 5.19458 41.108C4.92258 41.068 4.67858 41.02 4.46258 40.964C4.24658 40.9 4.05858 40.836 3.89858 40.772C3.74658 40.7 3.62658 40.64 3.53858 40.592L3.88658 39.632C4.07058 39.736 4.35058 39.852 4.72658 39.98C5.10258 40.108 5.56258 40.172 6.10658 40.172ZM16.1173 32.684V33.692H13.5013V41H12.3373V33.692H9.7213V32.684H16.1173ZM17.3465 41V32.684H22.4225V33.68H18.5105V36.152H21.9905V37.124H18.5105V40.004H22.7225V41H17.3465ZM26.4099 32.6C27.5779 32.6 28.4739 32.824 29.0979 33.272C29.7299 33.712 30.0459 34.372 30.0459 35.252C30.0459 35.732 29.9579 36.144 29.7819 36.488C29.6139 36.824 29.3659 37.1 29.0379 37.316C28.7179 37.524 28.3259 37.676 27.8619 37.772C27.3979 37.868 26.8739 37.916 26.2899 37.916H25.3659V41H24.2019V32.804C24.5299 32.724 24.8939 32.672 25.2939 32.648C25.7019 32.616 26.0739 32.6 26.4099 32.6ZM26.5059 33.62C26.0099 33.62 25.6299 33.632 25.3659 33.656V36.92H26.2419C26.6419 36.92 27.0019 36.896 27.3219 36.848C27.6419 36.792 27.9099 36.704 28.1259 36.584C28.3499 36.456 28.5219 36.284 28.6419 36.068C28.7619 35.852 28.8219 35.576 28.8219 35.24C28.8219 34.92 28.7579 34.656 28.6299 34.448C28.5099 34.24 28.3419 34.076 28.1259 33.956C27.9179 33.828 27.6739 33.74 27.3939 33.692C27.1139 33.644 26.8179 33.62 26.5059 33.62ZM33.4347 40.172C34.6507 40.172 35.2587 39.756 35.2587 38.924C35.2587 38.668 35.2027 38.452 35.0907 38.276C34.9867 38.092 34.8427 37.936 34.6587 37.808C34.4747 37.672 34.2627 37.556 34.0227 37.46C33.7907 37.364 33.5427 37.268 33.2787 37.172C32.9747 37.068 32.6867 36.952 32.4147 36.824C32.1427 36.688 31.9067 36.532 31.7067 36.356C31.5067 36.172 31.3467 35.956 31.2267 35.708C31.1147 35.46 31.0587 35.16 31.0587 34.808C31.0587 34.08 31.3067 33.512 31.8027 33.104C32.2987 32.696 32.9827 32.492 33.8547 32.492C34.3587 32.492 34.8147 32.548 35.2227 32.66C35.6387 32.764 35.9427 32.88 36.1347 33.008L35.7627 33.956C35.5947 33.852 35.3427 33.752 35.0067 33.656C34.6787 33.552 34.2947 33.5 33.8547 33.5C33.6307 33.5 33.4227 33.524 33.2307 33.572C33.0387 33.62 32.8707 33.692 32.7267 33.788C32.5827 33.884 32.4667 34.008 32.3787 34.16C32.2987 34.304 32.2587 34.476 32.2587 34.676C32.2587 34.9 32.3027 35.088 32.3907 35.24C32.4787 35.392 32.6027 35.528 32.7627 35.648C32.9227 35.76 33.1067 35.864 33.3147 35.96C33.5307 36.056 33.7667 36.152 34.0227 36.248C34.3827 36.392 34.7107 36.536 35.0067 36.68C35.3107 36.824 35.5707 36.996 35.7867 37.196C36.0107 37.396 36.1827 37.636 36.3027 37.916C36.4227 38.188 36.4827 38.52 36.4827 38.912C36.4827 39.64 36.2147 40.2 35.6787 40.592C35.1507 40.984 34.4027 41.18 33.4347 41.18C33.1067 41.18 32.8027 41.156 32.5227 41.108C32.2507 41.068 32.0067 41.02 31.7907 40.964C31.5747 40.9 31.3867 40.836 31.2267 40.772C31.0747 40.7 30.9547 40.64 30.8667 40.592L31.2147 39.632C31.3987 39.736 31.6787 39.852 32.0547 39.98C32.4307 40.108 32.8907 40.172 33.4347 40.172Z" fill="black"/>
<path d="M47.1468 39.872C47.6908 39.872 48.0868 39.78 48.3348 39.596C48.5828 39.412 48.7068 39.152 48.7068 38.816C48.7068 38.616 48.6628 38.444 48.5748 38.3C48.4948 38.156 48.3748 38.028 48.2148 37.916C48.0628 37.796 47.8748 37.688 47.6508 37.592C47.4268 37.488 47.1708 37.388 46.8828 37.292C46.5948 37.188 46.3148 37.076 46.0428 36.956C45.7788 36.828 45.5428 36.672 45.3348 36.488C45.1348 36.304 44.9708 36.084 44.8428 35.828C44.7228 35.572 44.6628 35.264 44.6628 34.904C44.6628 34.152 44.9228 33.564 45.4428 33.14C45.9628 32.708 46.6708 32.492 47.5668 32.492C48.0868 32.492 48.5468 32.552 48.9468 32.672C49.3548 32.784 49.6748 32.908 49.9068 33.044L49.4388 34.268C49.1668 34.116 48.8668 34 48.5388 33.92C48.2188 33.84 47.8868 33.8 47.5428 33.8C47.1348 33.8 46.8148 33.884 46.5828 34.052C46.3588 34.22 46.2468 34.456 46.2468 34.76C46.2468 34.944 46.2828 35.104 46.3548 35.24C46.4348 35.368 46.5428 35.484 46.6788 35.588C46.8228 35.692 46.9868 35.788 47.1708 35.876C47.3628 35.964 47.5708 36.048 47.7948 36.128C48.1868 36.272 48.5348 36.42 48.8388 36.572C49.1508 36.716 49.4108 36.892 49.6188 37.1C49.8348 37.3 49.9988 37.54 50.1108 37.82C50.2228 38.092 50.2788 38.424 50.2788 38.816C50.2788 39.568 50.0108 40.152 49.4748 40.568C48.9468 40.976 48.1708 41.18 47.1468 41.18C46.8028 41.18 46.4868 41.156 46.1988 41.108C45.9188 41.068 45.6668 41.016 45.4428 40.952C45.2268 40.888 45.0388 40.824 44.8788 40.76C44.7188 40.688 44.5908 40.624 44.4948 40.568L44.9388 39.332C45.1548 39.452 45.4468 39.572 45.8148 39.692C46.1828 39.812 46.6268 39.872 47.1468 39.872ZM52.8472 36.836C52.8472 37.292 52.9032 37.708 53.0152 38.084C53.1272 38.452 53.2872 38.768 53.4952 39.032C53.7112 39.288 53.9712 39.488 54.2752 39.632C54.5792 39.776 54.9232 39.848 55.3072 39.848C55.6832 39.848 56.0232 39.776 56.3272 39.632C56.6312 39.488 56.8872 39.288 57.0952 39.032C57.3112 38.768 57.4752 38.452 57.5872 38.084C57.6992 37.708 57.7552 37.292 57.7552 36.836C57.7552 36.38 57.6992 35.968 57.5872 35.6C57.4752 35.224 57.3112 34.908 57.0952 34.652C56.8872 34.388 56.6312 34.184 56.3272 34.04C56.0232 33.896 55.6832 33.824 55.3072 33.824C54.9232 33.824 54.5792 33.896 54.2752 34.04C53.9712 34.184 53.7112 34.388 53.4952 34.652C53.2872 34.916 53.1272 35.232 53.0152 35.6C52.9032 35.968 52.8472 36.38 52.8472 36.836ZM59.3392 36.836C59.3392 37.548 59.2312 38.176 59.0152 38.72C58.8072 39.264 58.5192 39.72 58.1512 40.088C57.7912 40.448 57.3672 40.72 56.8792 40.904C56.3912 41.088 55.8712 41.18 55.3192 41.18C54.7672 41.18 54.2432 41.088 53.7472 40.904C53.2592 40.72 52.8312 40.448 52.4632 40.088C52.1032 39.72 51.8152 39.264 51.5992 38.72C51.3832 38.176 51.2752 37.548 51.2752 36.836C51.2752 36.124 51.3832 35.5 51.5992 34.964C51.8152 34.42 52.1072 33.964 52.4752 33.596C52.8512 33.228 53.2832 32.952 53.7712 32.768C54.2592 32.584 54.7752 32.492 55.3192 32.492C55.8632 32.492 56.3792 32.584 56.8672 32.768C57.3552 32.952 57.7792 33.228 58.1392 33.596C58.5072 33.964 58.7992 34.42 59.0152 34.964C59.2312 35.5 59.3392 36.124 59.3392 36.836ZM66.254 39.692V41H60.998V32.684H62.51V39.692H66.254ZM70.4246 41.18C69.8566 41.18 69.3686 41.1 68.9606 40.94C68.5526 40.772 68.2126 40.54 67.9406 40.244C67.6766 39.948 67.4806 39.6 67.3526 39.2C67.2246 38.8 67.1606 38.36 67.1606 37.88V32.684H68.6846V37.736C68.6846 38.112 68.7246 38.436 68.8046 38.708C68.8926 38.972 69.0126 39.188 69.1646 39.356C69.3246 39.524 69.5086 39.648 69.7166 39.728C69.9326 39.808 70.1726 39.848 70.4366 39.848C70.7006 39.848 70.9406 39.808 71.1566 39.728C71.3726 39.648 71.5566 39.524 71.7086 39.356C71.8686 39.188 71.9886 38.972 72.0686 38.708C72.1566 38.436 72.2006 38.112 72.2006 37.736V32.684H73.7246V37.88C73.7246 38.36 73.6566 38.8 73.5206 39.2C73.3926 39.6 73.1926 39.948 72.9206 40.244C72.6566 40.54 72.3166 40.772 71.9006 40.94C71.4846 41.1 70.9926 41.18 70.4246 41.18ZM81.4541 32.684V33.992H78.8981V41H77.3741V33.992H74.8181V32.684H81.4541ZM82.6073 32.684H84.1193V41H82.6073V32.684ZM87.3472 36.836C87.3472 37.292 87.4032 37.708 87.5152 38.084C87.6272 38.452 87.7872 38.768 87.9952 39.032C88.2112 39.288 88.4712 39.488 88.7752 39.632C89.0792 39.776 89.4232 39.848 89.8072 39.848C90.1832 39.848 90.5232 39.776 90.8272 39.632C91.1312 39.488 91.3872 39.288 91.5952 39.032C91.8112 38.768 91.9752 38.452 92.0872 38.084C92.1992 37.708 92.2552 37.292 92.2552 36.836C92.2552 36.38 92.1992 35.968 92.0872 35.6C91.9752 35.224 91.8112 34.908 91.5952 34.652C91.3872 34.388 91.1312 34.184 90.8272 34.04C90.5232 33.896 90.1832 33.824 89.8072 33.824C89.4232 33.824 89.0792 33.896 88.7752 34.04C88.4712 34.184 88.2112 34.388 87.9952 34.652C87.7872 34.916 87.6272 35.232 87.5152 35.6C87.4032 35.968 87.3472 36.38 87.3472 36.836ZM93.8392 36.836C93.8392 37.548 93.7312 38.176 93.5152 38.72C93.3072 39.264 93.0192 39.72 92.6512 40.088C92.2912 40.448 91.8672 40.72 91.3792 40.904C90.8912 41.088 90.3712 41.18 89.8192 41.18C89.2672 41.18 88.7432 41.088 88.2472 40.904C87.7592 40.72 87.3312 40.448 86.9632 40.088C86.6032 39.72 86.3152 39.264 86.0992 38.72C85.8832 38.176 85.7752 37.548 85.7752 36.836C85.7752 36.124 85.8832 35.5 86.0992 34.964C86.3152 34.42 86.6072 33.964 86.9752 33.596C87.3512 33.228 87.7832 32.952 88.2712 32.768C88.7592 32.584 89.2752 32.492 89.8192 32.492C90.3632 32.492 90.8792 32.584 91.3672 32.768C91.8552 32.952 92.2792 33.228 92.6392 33.596C93.0072 33.964 93.2992 34.42 93.5152 34.964C93.7312 35.5 93.8392 36.124 93.8392 36.836ZM101.102 41C100.83 40.544 100.526 40.056 100.19 39.536C99.854 39.008 99.506 38.48 99.146 37.952C98.786 37.416 98.418 36.9 98.042 36.404C97.674 35.9 97.322 35.448 96.986 35.048V41H95.498V32.684H96.734C97.054 33.02 97.398 33.42 97.766 33.884C98.134 34.34 98.502 34.816 98.87 35.312C99.246 35.808 99.606 36.308 99.95 36.812C100.302 37.308 100.614 37.772 100.886 38.204V32.684H102.386V41H101.102ZM106.397 39.872C106.941 39.872 107.337 39.78 107.585 39.596C107.833 39.412 107.957 39.152 107.957 38.816C107.957 38.616 107.913 38.444 107.825 38.3C107.745 38.156 107.625 38.028 107.465 37.916C107.313 37.796 107.125 37.688 106.901 37.592C106.677 37.488 106.421 37.388 106.133 37.292C105.845 37.188 105.565 37.076 105.293 36.956C105.029 36.828 104.793 36.672 104.585 36.488C104.385 36.304 104.221 36.084 104.093 35.828C103.973 35.572 103.913 35.264 103.913 34.904C103.913 34.152 104.173 33.564 104.693 33.14C105.213 32.708 105.921 32.492 106.817 32.492C107.337 32.492 107.797 32.552 108.197 32.672C108.605 32.784 108.925 32.908 109.157 33.044L108.689 34.268C108.417 34.116 108.117 34 107.789 33.92C107.469 33.84 107.137 33.8 106.793 33.8C106.385 33.8 106.065 33.884 105.833 34.052C105.609 34.22 105.497 34.456 105.497 34.76C105.497 34.944 105.533 35.104 105.605 35.24C105.685 35.368 105.793 35.484 105.929 35.588C106.073 35.692 106.237 35.788 106.421 35.876C106.613 35.964 106.821 36.048 107.045 36.128C107.437 36.272 107.785 36.42 108.089 36.572C108.401 36.716 108.661 36.892 108.869 37.1C109.085 37.3 109.249 37.54 109.361 37.82C109.473 38.092 109.529 38.424 109.529 38.816C109.529 39.568 109.261 40.152 108.725 40.568C108.197 40.976 107.421 41.18 106.397 41.18C106.053 41.18 105.737 41.156 105.449 41.108C105.169 41.068 104.917 41.016 104.693 40.952C104.477 40.888 104.289 40.824 104.129 40.76C103.969 40.688 103.841 40.624 103.745 40.568L104.189 39.332C104.405 39.452 104.697 39.572 105.065 39.692C105.433 39.812 105.877 39.872 106.397 39.872Z" fill="black"/>
</g>
<defs>
<filter id="filter0_b" x="-0.461426" y="2.864" width="113.99" height="42.316" filterUnits="userSpaceOnUse" color-interpolation-filters="sRGB">
<feFlood flood-opacity="0" result="BackgroundImageFix"/>
<feGaussianBlur in="BackgroundImage" stdDeviation="2"/>
<feComposite in2="SourceAlpha" operator="in" result="effect1_backgroundBlur"/>
<feBlend mode="normal" in="SourceGraphic" in2="effect1_backgroundBlur" result="shape"/>
</filter>
</defs>
</svg>
