<svg xmlns="http://www.w3.org/2000/svg" width="118" height="109" fill="none" viewBox="0 0 118 109"><rect width="118" height="109" fill="#fff"/><path fill="url(#paint0_linear)" d="M0 109C15.9334 94.9319 109.559 126.983 118 2.86841L118 109L0 109Z"/><path fill="#0D1128" d="M35.1925 44.48L33.8605 51.14H45.5605L44.5885 55.82H32.9605L31.1245 65H25.2565L30.2965 39.8H49.3405L48.3685 44.48H35.1925ZM56.9623 65.432C54.9703 65.432 53.0623 65.168 51.2383 64.64C49.4143 64.112 47.9503 63.44 46.8463 62.624L49.2223 58.124C50.3743 58.964 51.6703 59.612 53.1103 60.068C54.5503 60.524 56.0263 60.752 57.5383 60.752C59.1463 60.752 60.4183 60.488 61.3543 59.96C62.2903 59.432 62.7583 58.712 62.7583 57.8C62.7583 57.056 62.3863 56.492 61.6423 56.108C60.8983 55.7 59.7103 55.268 58.0783 54.812C56.4463 54.332 55.1143 53.876 54.0823 53.444C53.0503 52.988 52.1503 52.316 51.3823 51.428C50.6383 50.54 50.2663 49.364 50.2663 47.9C50.2663 46.196 50.7343 44.696 51.6703 43.4C52.6303 42.104 53.9743 41.108 55.7023 40.412C57.4543 39.716 59.4823 39.368 61.7863 39.368C63.4903 39.368 65.0983 39.56 66.6103 39.944C68.1223 40.304 69.4183 40.832 70.4983 41.528L68.3023 45.992C67.3663 45.344 66.3103 44.864 65.1343 44.552C63.9583 44.216 62.7343 44.048 61.4623 44.048C59.8063 44.048 58.4983 44.336 57.5383 44.912C56.5783 45.488 56.0983 46.232 56.0983 47.144C56.0983 47.696 56.3023 48.164 56.7103 48.548C57.1183 48.908 57.6343 49.208 58.2583 49.448C58.8823 49.664 59.7583 49.928 60.8863 50.24C62.4943 50.672 63.8143 51.116 64.8463 51.572C65.8783 52.004 66.7543 52.652 67.4743 53.516C68.2183 54.356 68.5903 55.472 68.5903 56.864C68.5903 58.592 68.1103 60.104 67.1503 61.4C66.1903 62.672 64.8343 63.668 63.0823 64.388C61.3303 65.084 59.2903 65.432 56.9623 65.432ZM79.9194 65.432C77.9274 65.432 76.0194 65.168 74.1954 64.64C72.3714 64.112 70.9074 63.44 69.8034 62.624L72.1794 58.124C73.3314 58.964 74.6274 59.612 76.0674 60.068C77.5074 60.524 78.9834 60.752 80.4954 60.752C82.1034 60.752 83.3754 60.488 84.3114 59.96C85.2474 59.432 85.7154 58.712 85.7154 57.8C85.7154 57.056 85.3434 56.492 84.5994 56.108C83.8554 55.7 82.6674 55.268 81.0354 54.812C79.4034 54.332 78.0714 53.876 77.0394 53.444C76.0074 52.988 75.1074 52.316 74.3394 51.428C73.5954 50.54 73.2234 49.364 73.2234 47.9C73.2234 46.196 73.6914 44.696 74.6274 43.4C75.5874 42.104 76.9314 41.108 78.6594 40.412C80.4114 39.716 82.4394 39.368 84.7434 39.368C86.4474 39.368 88.0554 39.56 89.5674 39.944C91.0794 40.304 92.3754 40.832 93.4554 41.528L91.2594 45.992C90.3234 45.344 89.2674 44.864 88.0914 44.552C86.9154 44.216 85.6914 44.048 84.4194 44.048C82.7634 44.048 81.4554 44.336 80.4954 44.912C79.5354 45.488 79.0554 46.232 79.0554 47.144C79.0554 47.696 79.2594 48.164 79.6674 48.548C80.0754 48.908 80.5914 49.208 81.2154 49.448C81.8394 49.664 82.7154 49.928 83.8434 50.24C85.4514 50.672 86.7714 51.116 87.8034 51.572C88.8354 52.004 89.7114 52.652 90.4314 53.516C91.1754 54.356 91.5474 55.472 91.5474 56.864C91.5474 58.592 91.0674 60.104 90.1074 61.4C89.1474 62.672 87.7914 63.668 86.0394 64.388C84.2874 65.084 82.2474 65.432 79.9194 65.432Z"/><path fill="url(#paint1_linear)" d="M0 0H118L32.45 13.7477L0 109V0Z"/><defs><linearGradient id="paint0_linear" x1="101.844" x2="49.415" y1="88.564" y2="32.147" gradientUnits="userSpaceOnUse"><stop stop-color="#0D1128"/><stop offset="1" stop-color="#4F4D85" stop-opacity="0"/></linearGradient><linearGradient id="paint1_linear" x1="44.649" x2="129.021" y1="12.766" y2="115.654" gradientUnits="userSpaceOnUse"><stop stop-color="#FD5F00"/><stop offset="1" stop-color="#FD5F00" stop-opacity="0"/></linearGradient></defs></svg>